<svg
    xmlns="http://www.w3.org/2000/svg"
    xmlns:xlink="http://www.w3.org/1999/xlink" >
    <defs>
        <style>
            .label {
                font-family: sans-serif;
                text-anchor: middle;
                fill: steelblue;
            }
            .thinline {
                stroke: gainsboro;
                fill: gainsboro
            }
            .innersegment {
                stroke: slategray;
                fill: slategray;
                stroke-width: 2
            }
        </style>
        <marker id="arrow" class = "thinline"
                viewBox="0 0 10 10" 
                refX="1" refY="5"
                markerUnits = "strokeWidth"
                orient="auto">
            <path d="M 0 0 L 10 5 L 0 10 z" />
        </marker>
        <marker id="smallarrow" stroke="inherit" fill="inherit"  
                viewBox="0 0 5 5" 
                refX="1" refY="3"
                markerUnits = "strokeWidth"
                orient="auto">
            <path d="M 0 0 L 5 3 L 0 5 z" />
        </marker>
        <circle id="OddDot" r = "1" fill="ivory" stroke="steelblue" />        
        <circle id="EvenDot" r = "1" fill="ivory" stroke="crimson" />
        <g id="Caminho">
            <path
                stroke = "black" fill = "inherit" d = "
                M -40, 0
                q 40 -40, 80 0
                q -40 40 -80 0
                m 20 10
                l 0 -20
                l 40 20
                l 0 -20
                l -40 20
                m 0 0
                z"/>
        </g>
    </defs>
    <!-- Mark Dots -->
    <g transform="translate(256,128)scale(4)" >
        <use xlink:href="#Caminho"  fill = "none"/>
        <line marker-end = "url(#arrow)" class = "thinline"
            x1 = "-50" y1 = "-5" 
            x2 = "50"  y2 = "-5" />
        <use xlink:href="#OddDot" transform="translate(-34.5,-5)" />
        <use xlink:href="#EvenDot" transform="translate(-20,-5)" />
        <use xlink:href="#OddDot" transform="translate(-11,-5)" />
        <use xlink:href="#EvenDot" transform="translate(11,-5)" />
        <use xlink:href="#OddDot" transform="translate(20,-5)" />
        <use xlink:href="#EvenDot" transform="translate(34.5,-5)" />
    </g>
    <!-- Inner Segments -->
    <g transform="translate(256,320)scale(4)" >
        <use xlink:href="#Caminho" fill = "none"/>
        <line marker-end = "url(#arrow)" class = "thinline"
            x1 = "-50" y1 = "-5" 
            x2 = "50"  y2 = "-5" />
        <use xlink:href="#OddDot" transform="translate(-34.5,-5)" />
        <use xlink:href="#EvenDot" transform="translate(-20,-5)" />
        <use xlink:href="#OddDot" transform="translate(-11,-5)" />
        <use xlink:href="#EvenDot" transform="translate(11,-5)" />
        <use xlink:href="#OddDot" transform="translate(20,-5)" />
        <use xlink:href="#EvenDot" transform="translate(34.5,-5)" />
        <line y1 = "-5" y2 = "-5" class="innersegment" x1 = "-34.5" x2 = "-20" />
        <line y1 = "-5" y2 = "-5" class="innersegment" x1 = "-11" x2 = "11" />
        <line y1 = "-5" y2 = "-5" class="innersegment" x1 = "20" x2 = "34.5" />
    </g>
    <!-- Fill Path -->
    <g transform="translate(256,512)scale(4)" >
        <use xlink:href="#Caminho" fill = "gainsboro" fill-rule="evenodd" />
        <line marker-end = "url(#arrow)" class = "thinline"
            x1 = "-50" y1 = "-5" 
            x2 = "50"  y2 = "-5" />
        <use xlink:href="#OddDot" transform="translate(-34.5,-5)" />
        <use xlink:href="#EvenDot" transform="translate(-20,-5)" />
        <use xlink:href="#OddDot" transform="translate(-11,-5)" />
        <use xlink:href="#EvenDot" transform="translate(11,-5)" />
        <use xlink:href="#OddDot" transform="translate(20,-5)" />
        <use xlink:href="#EvenDot" transform="translate(34.5,-5)" />
        <line y1 = "-5" y2 = "-5" class="innersegment" x1 = "-34.5" x2 = "-20" />
        <line y1 = "-5" y2 = "-5" class="innersegment" x1 = "-11" x2 = "11" />
        <line y1 = "-5" y2 = "-5" class="innersegment" x1 = "20" x2 = "34.5" />
    </g>
</svg>