<svg
    xmlns="http://www.w3.org/2000/svg"
    xmlns:xlink="http://www.w3.org/1999/xlink" >
    <defs>
        <style>
            .label {
                font-family: sans-serif;
                text-anchor: middle;
                fill: steelblue;
            }
            .thinline {
                stroke: gainsboro;
                fill: gainsboro
                stroke-width: 1;
            }
            .mainaxis {
                stroke: slategray;
                stroke-width: 2;
            }
            .label {
                anchor: middle;
                fill: steelblue;
            }
        </style>
        <marker id="arrow" fill="inherit" stroke="inherit"
                viewBox="0 0 10 10" 
                refX="1" refY="5"
                markerUnits = "strokeWidth"
                orient="auto">
            <path d="M 0 0 L 10 5 L 0 10 z" />
        </marker>
        <g id="Forma" transform="translate(50,50)">
            <path
                stroke = "black" d = "
                M -40, 0
                q 40 -40, 80 0
                q -40 40 -80 0
                m 20 10
                l 0 -20
                l 40 20
                l 0 -20
                l -40 20
                m 0 0
                z"/>
        </g>
        <g id="Referencial" stroke-linecap="square">       
            <line x1 = "-100" x2 = "100"  y1 = "10" y2 = "10" class = "thinline" />          
            <line x1 = "-100" x2 = "100"  y1 = "20" y2 = "20" class = "thinline" />          
            <line x1 = "-100" x2 = "100"  y1 = "30" y2 = "30" class = "thinline" />          
            <line x1 = "-100" x2 = "100"  y1 = "40" y2 = "40" class = "thinline" />          
            <line x1 = "-100" x2 = "100"  y1 = "50" y2 = "50" class = "thinline" />          
            <line x1 = "-100" x2 = "100"  y1 = "60" y2 = "60" class = "thinline" />          
            <line x1 = "-100" x2 = "100"  y1 = "70" y2 = "70" class = "thinline" />          
            <line x1 = "-100" x2 = "100"  y1 = "80" y2 = "80" class = "thinline" />          
            <line x1 = "-100" x2 = "100"  y1 = "90" y2 = "90" class = "thinline" />      
            <line x1 = "-100" x2 = "100"  y1 = "100" y2 = "100" class = "thinline" />  
            <line x1 = "-100" x2 = "100"  y1 = "-10" y2 = "-10" class = "thinline" />          
            <line x1 = "-100" x2 = "100"  y1 = "-20" y2 = "-20" class = "thinline" />          
            <line x1 = "-100" x2 = "100"  y1 = "-30" y2 = "-30" class = "thinline" />          
            <line x1 = "-100" x2 = "100"  y1 = "-40" y2 = "-40" class = "thinline" />          
            <line x1 = "-100" x2 = "100"  y1 = "-50" y2 = "-50" class = "thinline" />          
            <line x1 = "-100" x2 = "100"  y1 = "-60" y2 = "-60" class = "thinline" />          
            <line x1 = "-100" x2 = "100"  y1 = "-70" y2 = "-70" class = "thinline" />          
            <line x1 = "-100" x2 = "100"  y1 = "-80" y2 = "-80" class = "thinline" />          
            <line x1 = "-100" x2 = "100"  y1 = "-90" y2 = "-90" class = "thinline" />          
            <line x1 = "-100" x2 = "100"  y1 = "-100" y2 = "-100" class = "thinline" />        
            <line y1 = "-100" y2 = "100"  x1 = "10" x2 = "10" class = "thinline" />          
            <line y1 = "-100" y2 = "100"  x1 = "20" x2 = "20" class = "thinline" />          
            <line y1 = "-100" y2 = "100"  x1 = "30" x2 = "30" class = "thinline" />          
            <line y1 = "-100" y2 = "100"  x1 = "40" x2 = "40" class = "thinline" />          
            <line y1 = "-100" y2 = "100"  x1 = "50" x2 = "50" class = "thinline" />          
            <line y1 = "-100" y2 = "100"  x1 = "60" x2 = "60" class = "thinline" />          
            <line y1 = "-100" y2 = "100"  x1 = "70" x2 = "70" class = "thinline" />          
            <line y1 = "-100" y2 = "100"  x1 = "80" x2 = "80" class = "thinline" />          
            <line y1 = "-100" y2 = "100"  x1 = "90" x2 = "90" class = "thinline" />          
            <line y1 = "-100" y2 = "100"  x1 = "100" x2 = "100" class = "thinline" />       
            <line y1 = "-100" y2 = "100"  x1 = "-10" x2 = "-10" class = "thinline" />          
            <line y1 = "-100" y2 = "100"  x1 = "-20" x2 = "-20" class = "thinline" />          
            <line y1 = "-100" y2 = "100"  x1 = "-30" x2 = "-30" class = "thinline" />          
            <line y1 = "-100" y2 = "100"  x1 = "-40" x2 = "-40" class = "thinline" />          
            <line y1 = "-100" y2 = "100"  x1 = "-50" x2 = "-50" class = "thinline" />          
            <line y1 = "-100" y2 = "100"  x1 = "-60" x2 = "-60" class = "thinline" />          
            <line y1 = "-100" y2 = "100"  x1 = "-70" x2 = "-70" class = "thinline" />          
            <line y1 = "-100" y2 = "100"  x1 = "-80" x2 = "-80" class = "thinline" />          
            <line y1 = "-100" y2 = "100"  x1 = "-90" x2 = "-90" class = "thinline" />          
            <line y1 = "-100" y2 = "100"  x1 = "-100" x2 = "-100" class = "thinline" />
            <line x1 = "-100" y1 = "0" x2 = "100" y2 = "0" class = "mainaxis" marker-end="url(#arrow)" />   
            <line x1 = "00" y1 = "-100" x2 = "0" y2 = "100" class = "mainaxis" marker-end="url(#arrow)" /> 
        </g>
        <g id="SmallRef" stroke-linecap="square">
            <line x1 = "-10" y1 = "0" x2 = "10" y2 = "0" stroke="crimson"  marker-end="url(#arrow)"
                stroke-width="4" />   
            <line x1 = "0" y1 = "-10" x2 = "0" y2 = "10" stroke="darkgreen"  marker-end="url(#arrow)" stroke-width="4" /> 
        </g>

    </defs>
    <g transform="translate(164,164)">
        <use xlink:href="#Referencial" />
        <use xlink:href="#Forma" fill="slateblue" />
        <use xlink:href="#SmallRef" />
        <text class="label" y = "-100" >
            Original
        </text>
    </g>
    <g transform="translate(464,164)">
        <use xlink:href="#Referencial" />
        <g transform="translate(-64,32)">
            <use xlink:href="#Forma" fill="slategray"/>
            <use xlink:href="#SmallRef" />
        </g>
        <text class="label" y = "-100" >
            T(-64,32)
        </text>
    </g>
</svg>