<svg xmlns="http://www.w3.org/2000/svg" xmlns:xlink="http://www.w3.org/1999/xlink">
    <path id="corpo" stroke="black" fill="#ffc61a" d=
        "M 128 128
        L 158 128
        M 164 128
        L 164 135
        L 169 135
        Q 168 140 169 145
        L 164 145
        L 164 152
        M 158 152
        L 128 152
        Q 124 136 128 128"
    />
    <!--Ligação Peito-Braço para preencher todo o corpo sem se notar contornos!-->
    <path id="ligação" stroke="none" fill="#ffc61a" d=
        "M 158 128
        L 164 128
        L 164 152
        L 128 152
        L 128 128"
    />
    
    <path id="braço_direito" stroke="black" fill="#ffc61a" d=
        "M 158 128
        Q 148 120 144 90
        Q 149 85 150 95
        Q 158 120 164 128"
    />
    
    <path id="braço_esquerdo" stroke="black" fill="#ffc61a" d=
        "M 164 152
        Q 174 158 205 158
        Q 210 163 205 163
        Q 174 160 164 160
        Q 160 160 158 152"
    />
    <!--
    <path id="cauda" stroke="black" fill="#00ffaa" d=
        "M 128 152
        Q 124 136 128 128
        Q 70 120 60 138
        Q 60 120 40 120
        Q 55 126 50 144
        Q 55 155 40 168
        Q 60 160 60 148
        Q 100 158 128 152
        M 169 149"
    />
    -->
    <path id="cauda" stroke="black" fill="#00ffaa" d=
        "M 128 152
        Q 124 136 128 128
        C 100 120 70 140 60 138
        Q 60 128 30 132
        Q 35 144 50 142
        M 128 152
        C 100 160 70 140 60 146
        Q 60 156 30 152
        Q 35 144 50 142"

        
    />    

    <!--
    <path DEF="escamas" stroke="black" fill="none" d=
        "M 124 130
        Q 122 134 124 138
        M 124 140
        Q 122 144 124 148

        M 120 130
        Q 118 132 120 134
        M 120 136
        Q 118 138 120 140
        M 120 142
        Q 118 144 120 148
        
        M 116 132
        Q 114 136 116 140
        M 116 142
        Q 114 144 116 148
        
        M 110 134
        Q 108 136 110 138
        M 110 140
        Q 108 142 110 146
        
        M 100 136
        Q 98 138 100 140
        
        
        M 53 148
        L 58 150
        M 53 152
        L 56 154
        M 52 156
        L 54 158
        
        M 53 138
        L 58 136
        M 53 134
        L 56 132
        M 52 130
        L 55 128"
    />
    -->
     <circle id="cabeça" cx = "180" cy="139" r = "12" stroke="none" fill = "#ffc61a"/>

     <path id="boca" stroke="black" fill="black" d=
     "M 174 134
     Q 172 138 174 144
     Q 166 138 174 134"/>

     <circle id="olho_direito" cx = "184" cy="134" r = "2" stroke="none" fill = "black"/>
     <circle id="olho_esquerdo" cx = "184" cy="144" r = "2" stroke="none" fill = "black"/>

     <path id="sobrancelhas" stroke="black" fill="none" d=
     "M 186 132
     Q 188 134 186 136
     M 186 142
     Q 188 144 186 146"/>

     <path id="cabelo" stroke="none" fill="brown" d=
    "M 180 127
    Q 192 128 190 139 
    Q 194 146 180 151
    Q 196 150 196 139
    Q 196 128 180 127"/>
</svg>